<svg width="13" height="14" viewBox="0 0 13 14" fill="none" xmlns="http://www.w3.org/2000/svg">
<path d="M4.5 11.6667C1.63333 12.6 1.63333 10 0.5 9.66669M8.5 13V10.6667C8.5 10 8.56667 9.73336 8.16667 9.33336C10.0333 9.13336 11.8333 8.40003 11.8333 5.33336C11.8325 4.53667 11.5217 3.77157 10.9667 3.20003C11.227 2.50801 11.203 1.74111 10.9 1.06669C10.9 1.06669 10.1667 0.866695 8.56667 1.93336C7.21149 1.58042 5.78851 1.58042 4.43333 1.93336C2.83333 0.866695 2.1 1.06669 2.1 1.06669C1.79699 1.74111 1.77302 2.50801 2.03333 3.20003C1.4783 3.77157 1.16748 4.53667 1.16667 5.33336C1.16667 8.40003 2.96667 9.13336 4.83333 9.33336C4.43333 9.73336 4.43333 10.1334 4.5 10.6667V13" stroke="white" stroke-linecap="round" stroke-linejoin="round"/>
</svg>
