<svg width="23" height="23" viewBox="0 0 23 23" fill="none" xmlns="http://www.w3.org/2000/svg">
<path d="M23 12.0391C23 12.8432 22.8068 13.5889 22.4205 14.2717C22.0342 14.9545 21.5176 15.4891 20.8662 15.8619C20.8842 15.9832 20.8932 16.1719 20.8932 16.4279C20.8932 17.6453 20.4844 18.6785 19.6758 19.532C18.8627 20.39 17.8834 20.8168 16.7379 20.8168C16.2258 20.8168 15.7361 20.7225 15.2734 20.5338C14.9141 21.2705 14.3975 21.8635 13.7191 22.3172C13.0453 22.7754 12.3041 23 11.5 23C10.6779 23 9.93223 22.7799 9.26738 22.3307C8.59805 21.8859 8.08594 21.2885 7.72656 20.5338C7.26387 20.7225 6.77871 20.8168 6.26211 20.8168C5.1166 20.8168 4.13281 20.39 3.31074 19.532C2.48867 18.6785 2.07988 17.6408 2.07988 16.4279C2.07988 16.2932 2.09785 16.1045 2.1293 15.8619C1.47793 15.4846 0.961328 14.9545 0.575 14.2717C0.193164 13.5889 0 12.8432 0 12.0391C0 11.1855 0.215625 10.3994 0.642383 9.68965C1.06914 8.97988 1.64414 8.4543 2.36289 8.11289C2.17422 7.60078 2.07988 7.08418 2.07988 6.57207C2.07988 5.35918 2.48867 4.32148 3.31074 3.46797C4.13281 2.61445 5.1166 2.1832 6.26211 2.1832C6.77422 2.1832 7.26387 2.27754 7.72656 2.46621C8.08594 1.72949 8.60254 1.13652 9.28086 0.682812C9.95469 0.229102 10.6959 0 11.5 0C12.3041 0 13.0453 0.229102 13.7191 0.67832C14.393 1.13203 14.9141 1.725 15.2734 2.46172C15.7361 2.27305 16.2213 2.17871 16.7379 2.17871C17.8834 2.17871 18.8627 2.60547 19.6758 3.46348C20.4889 4.32148 20.8932 5.35469 20.8932 6.56758C20.8932 7.13359 20.8078 7.6457 20.6371 8.1084C21.3559 8.4498 21.9309 8.97539 22.3576 9.68516C22.7844 10.3994 23 11.1855 23 12.0391ZM11.0104 15.5025L15.7586 8.39141C15.8799 8.20273 15.9158 7.99609 15.8754 7.77598C15.8305 7.55586 15.7182 7.38066 15.5295 7.26387C15.3408 7.14258 15.1342 7.10215 14.9141 7.13359C14.6895 7.16953 14.5098 7.27734 14.375 7.46602L10.1928 13.7551L8.26562 11.8324C8.09492 11.6617 7.89727 11.5809 7.67715 11.5898C7.45254 11.5988 7.25938 11.6797 7.08867 11.8324C6.93594 11.9852 6.85957 12.1783 6.85957 12.4119C6.85957 12.641 6.93594 12.8342 7.08867 12.9914L9.73457 15.6373L9.86484 15.7406C10.0176 15.8439 10.1748 15.8934 10.3275 15.8934C10.6285 15.8889 10.8576 15.7631 11.0104 15.5025Z" fill="#BDFF00"/>
</svg>
